<svg xmlns="http://www.w3.org/2000/svg" xmlns:xlink="http://www.w3.org/1999/xlink" width="1080" zoomAndPan="magnify" viewBox="0 0 810 809.999993" height="1080" preserveAspectRatio="xMidYMid meet" version="1.2"><defs/><g id="06ab438e17"><g style="fill:#000000;fill-opacity:1;"><g transform="translate(329.805554, 430.014496)"><path style="stroke:none" d="M 45.390625 -6.71875 C 46.671875 -3.414062 48.507812 -1.707031 50.90625 -1.59375 L 50.90625 0 C 48.769531 -0.15625 45.914062 -0.234375 42.34375 -0.234375 C 37.75 -0.234375 34.332031 -0.15625 32.09375 0 L 32.09375 -1.59375 C 34.125 -1.707031 35.578125 -1.960938 36.453125 -2.359375 C 37.335938 -2.765625 37.78125 -3.5 37.78125 -4.5625 C 37.78125 -5.46875 37.460938 -6.722656 36.828125 -8.328125 L 31.9375 -21.453125 L 12.5625 -21.453125 L 9.28125 -12.96875 C 8.21875 -10.082031 7.6875 -7.894531 7.6875 -6.40625 C 7.6875 -4.75 8.257812 -3.546875 9.40625 -2.796875 C 10.550781 -2.054688 12.300781 -1.65625 14.65625 -1.59375 L 14.65625 0 C 11.601562 -0.15625 8.53125 -0.234375 5.4375 -0.234375 C 3.039062 -0.234375 1.039062 -0.15625 -0.5625 0 L -0.5625 -1.59375 C 2.101562 -2.238281 4.210938 -4.5625 5.765625 -8.5625 L 24.578125 -57.078125 L 25.859375 -57.078125 Z M 31.296875 -23.046875 L 22.328125 -46.984375 L 13.203125 -23.046875 Z M 31.296875 -23.046875 "/></g></g><g style="fill:#000000;fill-opacity:1;"><g transform="translate(380.234846, 430.014496)"><path style="stroke:none" d="M 20.484375 -57.546875 C 22.835938 -57.546875 24.691406 -57.289062 26.046875 -56.78125 C 27.410156 -56.28125 28.8125 -55.550781 30.25 -54.59375 C 31.425781 -53.84375 32.335938 -53.46875 32.984375 -53.46875 C 33.460938 -53.46875 33.832031 -53.75 34.09375 -54.3125 C 34.363281 -54.875 34.578125 -55.769531 34.734375 -57 L 36.578125 -57 C 36.316406 -53.894531 36.1875 -48.445312 36.1875 -40.65625 L 34.34375 -40.65625 C 34.019531 -44.976562 32.773438 -48.617188 30.609375 -51.578125 C 28.453125 -54.546875 25.320312 -56.03125 21.21875 -56.03125 C 18.332031 -56.03125 15.984375 -55.160156 14.171875 -53.421875 C 12.359375 -51.691406 11.453125 -49.46875 11.453125 -46.75 C 11.453125 -44.71875 11.914062 -42.953125 12.84375 -41.453125 C 13.78125 -39.960938 14.96875 -38.679688 16.40625 -37.609375 C 17.851562 -36.546875 19.910156 -35.191406 22.578125 -33.546875 L 24.890625 -32.09375 C 28.253906 -30.019531 30.910156 -28.191406 32.859375 -26.609375 C 34.804688 -25.035156 36.363281 -23.234375 37.53125 -21.203125 C 38.707031 -19.179688 39.296875 -16.8125 39.296875 -14.09375 C 39.296875 -9.226562 37.695312 -5.472656 34.5 -2.828125 C 31.300781 -0.191406 27.242188 1.125 22.328125 1.125 C 19.765625 1.125 17.671875 0.851562 16.046875 0.3125 C 14.421875 -0.21875 12.859375 -0.9375 11.359375 -1.84375 C 10.191406 -2.59375 9.285156 -2.96875 8.640625 -2.96875 C 8.160156 -2.96875 7.785156 -2.6875 7.515625 -2.125 C 7.253906 -1.5625 7.046875 -0.664062 6.890625 0.5625 L 5.046875 0.5625 C 5.253906 -2.375 5.359375 -8.78125 5.359375 -18.65625 L 7.203125 -18.65625 C 7.578125 -13.257812 8.910156 -8.878906 11.203125 -5.515625 C 13.503906 -2.160156 17.023438 -0.484375 21.765625 -0.484375 C 24.648438 -0.484375 27.101562 -1.375 29.125 -3.15625 C 31.15625 -4.945312 32.171875 -7.601562 32.171875 -11.125 C 32.171875 -14.113281 31.171875 -16.648438 29.171875 -18.734375 C 27.171875 -20.816406 24.007812 -23.164062 19.6875 -25.78125 C 16.539062 -27.695312 13.992188 -29.398438 12.046875 -30.890625 C 10.097656 -32.390625 8.507812 -34.191406 7.28125 -36.296875 C 6.050781 -38.410156 5.4375 -40.878906 5.4375 -43.703125 C 5.4375 -48.179688 6.878906 -51.609375 9.765625 -53.984375 C 12.648438 -56.359375 16.222656 -57.546875 20.484375 -57.546875 Z M 20.484375 -57.546875 "/></g></g><g style="fill:#000000;fill-opacity:1;"><g transform="translate(423.459952, 430.014496)"><path style="stroke:none" d="M 53.625 -55.078125 C 51.757812 -54.960938 50.375 -54.675781 49.46875 -54.21875 C 48.5625 -53.769531 47.945312 -53.023438 47.625 -51.984375 C 47.300781 -50.941406 47.140625 -49.410156 47.140625 -47.390625 L 47.140625 0.40625 L 45.3125 0.40625 L 11.6875 -51.546875 L 11.6875 -9.28125 C 11.6875 -7.195312 11.859375 -5.648438 12.203125 -4.640625 C 12.554688 -3.628906 13.238281 -2.894531 14.25 -2.4375 C 15.257812 -1.988281 16.832031 -1.707031 18.96875 -1.59375 L 18.96875 0 C 17.050781 -0.15625 14.332031 -0.234375 10.8125 -0.234375 C 7.601562 -0.234375 5.117188 -0.15625 3.359375 0 L 3.359375 -1.59375 C 5.222656 -1.707031 6.609375 -1.988281 7.515625 -2.4375 C 8.429688 -2.894531 9.046875 -3.644531 9.359375 -4.6875 C 9.679688 -5.726562 9.84375 -7.257812 9.84375 -9.28125 L 9.84375 -48.1875 C 9.84375 -50.21875 9.679688 -51.6875 9.359375 -52.59375 C 9.046875 -53.5 8.445312 -54.109375 7.5625 -54.421875 C 6.6875 -54.742188 5.285156 -54.960938 3.359375 -55.078125 L 3.359375 -56.671875 C 5.117188 -56.515625 7.601562 -56.4375 10.8125 -56.4375 C 13.207031 -56.4375 15.285156 -56.515625 17.046875 -56.671875 L 45.3125 -13.125 L 45.3125 -47.390625 C 45.3125 -49.472656 45.132812 -51.019531 44.78125 -52.03125 C 44.4375 -53.039062 43.753906 -53.769531 42.734375 -54.21875 C 41.722656 -54.675781 40.148438 -54.960938 38.015625 -55.078125 L 38.015625 -56.671875 C 39.941406 -56.515625 42.664062 -56.4375 46.1875 -56.4375 C 49.382812 -56.4375 51.863281 -56.515625 53.625 -56.671875 Z M 53.625 -55.078125 "/></g></g></g></svg>